# File created by Blade
# Date/Time:  Wed Apr 08 17:00:23 2015
#---------------------------------------------------------
:version 1.10
:name HOM
:units
  mass 1.0
  length 1.000000
  angle deg
:documentation
     Acclaim Skeleton File
:root
   axis xyz
   order TX TY TZ RX RY RZ
   position 0.000000 0.000000 0.000000
   orientation 0 0 0
:bonedata
   begin
      id 1
      name Spine_dum
      direction 0.000000 1.000000 0.000000
      length 5.893853
      axis 0.0 0.0 0.0 xyz
   end
   begin
      id 2
      name LeftUpLeg_dum
      direction 1.000000 0.000000 0.000000
      length 3.697939
      axis 0.0 0.0 0.0 xyz
   end
   begin
      id 3
      name RightUpLeg_dum
      direction -1.000000 0.000000 0.000000
      length 3.697939
      axis 0.0 0.0 0.0 xyz
   end
   begin
      id 4
      name Spine
      direction 0.000000 1.000000 0.000000
      length 0.000000
      axis 0.0 0.0 0.0 xyz
      dof rx ry rz
   end
   begin
      id 5
      name Spine_dum1
      direction 0.000000 1.000000 0.000000
      length 16.447146
      axis 0.0 0.0 0.0 xyz
   end
   begin
      id 6
      name Spine_dum2
      direction 0.000000 1.000000 0.000000
      length 10.900383
      axis 0.0 0.0 0.0 xyz
   end
   begin
      id 7
      name Spine_dum3
      direction 0.000000 1.000000 0.000000
      length 10.900383
      axis 0.0 0.0 0.0 xyz
   end
   begin
      id 8
      name Head
      direction 0.000000 1.000000 0.000000
      length 4.527550
      axis 0.0 0.0 0.0 xyz
      dof rx ry rz
   end
   begin
      id 9
      name LeftShoulder
      direction 1.000000 0.000000 0.000000
      length 8.219464
      axis 0.0 0.0 -90.0 xyz
      dof rx ry rz
   end
   begin
      id 10
      name LeftArm
      direction 1.000000 0.000000 0.000000
      length 11.094937
      axis 0.0 0.0 -90.0 xyz
      dof rx ry rz
   end
   begin
      id 11
      name LeftForeArm
      direction 1.000000 0.000000 0.000000
      length 9.103875
      axis 0.0 0.0 -90.0 xyz
      dof ry rz rx
   end
   begin
      id 12
      name LeftHand
      direction 0.000000 0.000000 0.000000
      length 0.000000
      axis 0.0 0.0 -90.0 xyz
      dof rx ry rz
   end
   begin
      id 13
      name LeftHand_dum1
      direction 0.000000 0.000000 0.000000
      length 0.000000
      axis 0.0 0.0 -90.0 xyz
   end
   begin
      id 14
      name LeftHand_dum2
      direction 1.000000 0.000000 0.000000
      length 3.937000
      axis 0.0 0.0 -90.0 xyz
   end
   begin
      id 15
      name LeftHandThumb1
      direction 0.000000 0.000000 1.000000
      length 3.937000
      axis 0.0 0.0 -90.0 xyz
      dof rx rz ry
   end
   begin
      id 16
      name RightShoulder
      direction -1.000000 0.000000 0.000000
      length 8.219464
      axis 0.0 0.0 90.0 xyz
      dof rx ry rz
   end
   begin
      id 17
      name RightArm
      direction -1.000000 0.000000 0.000000
      length 11.094937
      axis 0.0 0.0 90.0 xyz
      dof rx ry rz
   end
   begin
      id 18
      name RightForeArm
      direction -1.000000 0.000000 0.000000
      length 9.103875
      axis 0.0 0.0 90.0 xyz
      dof ry rz rx
   end
   begin
      id 19
      name RightHand
      direction 0.000000 0.000000 0.000000
      length 0.000000
      axis 0.0 0.0 90.0 xyz
      dof rx ry rz
   end
   begin
      id 20
      name RightHand_dum1
      direction 0.000000 0.000000 0.000000
      length 0.000000
      axis 0.0 0.0 90.0 xyz
   end
   begin
      id 21
      name RightHand_dum2
      direction -1.000000 0.000000 0.000000
      length 3.937000
      axis 0.0 0.0 90.0 xyz
   end
   begin
      id 22
      name RightHandThumb1
      direction 0.000000 0.000000 1.000000
      length 3.937000
      axis 0.0 0.0 90.0 xyz
      dof rx rz ry
   end
   begin
      id 23
      name LeftUpLeg
      direction 0.000000 -1.000000 0.000000
      length 16.181467
      axis 0.0 0.0 0.0 xyz
      dof rx ry rz
   end
   begin
      id 24
      name LeftLeg
      direction 0.000000 -1.000000 0.000000
      length 16.501392
      axis 0.0 0.0 0.0 xyz
      dof rx ry rz
   end
   begin
      id 25
      name LeftFoot
      direction 0.000000 -0.258819 0.965926
      length 6.408245
      axis 15.0 0.0 0.0 xyz
      dof rx ry rz
   end
   begin
      id 26
      name LeftToeBase
      direction 0.000000 0.000000 1.000000
      length 2.952750
      axis 0.0 0.0 0.0 xyz
      dof rx ry rz
   end
   begin
      id 27
      name RightUpLeg
      direction 0.000000 -1.000000 0.000000
      length 16.181467
      axis 0.0 0.0 0.0 xyz
      dof rx ry rz
   end
   begin
      id 28
      name RightLeg
      direction 0.000000 -1.000000 0.000000
      length 16.501392
      axis 0.0 0.0 0.0 xyz
      dof rx ry rz
   end
   begin
      id 29
      name RightFoot
      direction 0.000000 -0.258819 0.965926
      length 6.408245
      axis 15.0 0.0 0.0 xyz
      dof rx ry rz
   end
   begin
      id 30
      name RightToeBase
      direction 0.000000 0.000000 1.000000
      length 2.952750
      axis 0.0 0.0 0.0 xyz
      dof rx ry rz
   end
:hierarchy
   begin
      root Spine_dum LeftUpLeg_dum RightUpLeg_dum
      Spine_dum Spine
      LeftUpLeg_dum LeftUpLeg
      RightUpLeg_dum RightUpLeg
      Spine Spine_dum1 Spine_dum2 Spine_dum3
      Spine_dum1 Head
      Spine_dum2 LeftShoulder
      Spine_dum3 RightShoulder
      LeftShoulder LeftArm
      LeftArm LeftForeArm
      LeftForeArm LeftHand
      LeftHand LeftHand_dum1 LeftHand_dum2
      LeftHand_dum1 LeftHandThumb1
      RightShoulder RightArm
      RightArm RightForeArm
      RightForeArm RightHand
      RightHand RightHand_dum1 RightHand_dum2
      RightHand_dum1 RightHandThumb1
      LeftUpLeg LeftLeg
      LeftLeg LeftFoot
      LeftFoot LeftToeBase
      RightUpLeg RightLeg
      RightLeg RightFoot
      RightFoot RightToeBase
   end

# File created by Blade
# Date/Time:  Wed Apr 08 17:00:17 2015
# Frame Rate: 120.000 fps
#------------------------------------------------------
:FULLY-SPECIFIED
:DEGREES
386
root 0.897843 35.707623 3.252068 -44.186114 -83.922956 31.514539
Spine 5.544789 -0.062888 0.011834
Head -2.585510 10.320052 -24.231319
LeftShoulder 8.370527 -6.073390 27.837043
LeftArm 83.472559 42.679209 -54.305303
LeftForeArm -48.273712 -0.000000 99.093999
LeftHand -33.002497 -0.000000 19.422994
LeftHandThumb1 -26.253704 0.000000 33.147579
RightShoulder -1.223493 -23.642761 -25.675396
RightArm 119.678620 12.605537 115.249931
RightForeArm 69.495915 -0.000000 126.381462
RightHand 17.174784 0.000000 -11.079511
RightHandThumb1 -24.326973 -0.000000 -32.862282
LeftUpLeg 16.408854 8.988286 4.857607
LeftLeg 11.101438 -0.000000 -0.000000
LeftFoot -14.903753 1.114065 -11.214943
LeftToeBase 9.057253 -0.000000 -0.000000
RightUpLeg 21.825458 -12.918141 -17.237924
RightLeg 2.203214 -0.000000 -0.000000
RightFoot -11.291393 5.778665 19.968164
RightToeBase 14.245242 -0.000000 -0.000000
387
root 0.894541 35.706714 3.250693 -44.216931 -83.937920 31.532740
Spine 5.553135 -0.096017 0.048367
Head -2.551736 10.175316 -24.169958
LeftShoulder 8.349496 -6.149641 27.901458
LeftArm 83.502426 42.701533 -54.272924
LeftForeArm -48.270446 -0.000000 99.075026
LeftHand -32.916958 0.000000 19.387554
LeftHandThumb1 -26.253704 0.000000 33.147579
RightShoulder -1.235182 -23.597058 -25.639688
RightArm 119.579513 12.707134 115.499261
RightForeArm 69.761700 -0.000000 125.882729
RightHand 17.199123 -0.000000 -11.705232
RightHandThumb1 -24.326973 -0.000000 -32.862282
LeftUpLeg 16.411535 8.995464 4.870163
LeftLeg 11.134599 -0.000000 -0.000000
LeftFoot -14.919971 1.127278 -11.193714
LeftToeBase 9.027933 -0.000000 -0.000000
RightUpLeg 21.824613 -12.907254 -17.234528
RightLeg 2.233867 -0.000000 -0.000000
RightFoot -11.300149 5.797120 19.953211
RightToeBase 14.210972 -0.000000 -0.000000
388
root 0.890616 35.705194 3.248976 -44.229601 -83.941016 31.525754
Spine 5.567283 -0.145320 0.077181
Head -2.516046 10.070611 -24.149600
LeftShoulder 8.372268 -6.214057 27.889898
LeftArm 83.550671 42.689491 -54.246175
LeftForeArm -48.281507 -0.000000 99.061347
LeftHand -33.094376 -0.000000 19.587047
LeftHandThumb1 -26.253704 0.000000 33.147579
RightShoulder -1.231635 -23.597500 -25.628639
RightArm 119.508319 12.797406 115.767244
RightForeArm 70.120380 0.000000 125.405504
RightHand 17.107538 -0.000000 -12.446559
RightHandThumb1 -24.326973 -0.000000 -32.862282
LeftUpLeg 16.429544 8.999426 4.882078
LeftLeg 11.151379 -0.000000 -0.000000
LeftFoot -14.928378 1.112545 -11.189257
LeftToeBase 8.993013 -0.000000 -0.000000
RightUpLeg 21.843505 -12.910856 -17.243049
RightLeg 2.252096 -0.000000 -0.000000
RightFoot -11.310581 5.839021 19.988299
RightToeBase 14.246598 -0.000000 -0.000000
389
root 0.886777 35.704101 3.247566 -44.255995 -83.941783 31.535425
Spine 5.571950 -0.254578 0.103486
Head -2.506667 9.938740 -24.113325
LeftShoulder 8.345176 -6.244227 27.883808
LeftArm 83.598828 42.683489 -54.217887
LeftForeArm -48.366639 -0.000000 99.021056
LeftHand -33.292574 -0.000000 19.664414
LeftHandThumb1 -26.253704 0.000000 33.147579
RightShoulder -1.166526 -23.561151 -25.659486
RightArm 119.398468 12.878055 116.051381
RightForeArm 70.348615 -0.000000 124.902063
RightHand 16.926518 -0.000000 -12.690422
RightHandThumb1 -24.326973 -0.000000 -32.862282
LeftUpLeg 16.443256 9.000705 4.889872
LeftLeg 11.170708 -0.000000 -0.000000
LeftFoot -14.939048 1.110349 -11.177978
LeftToeBase 8.961476 -0.000000 -0.000000
RightUpLeg 21.859200 -12.909921 -17.251807
RightLeg 2.266669 -0.000000 -0.000000
RightFoot -11.317499 5.867385 19.999752
RightToeBase 14.243027 -0.000000 -0.000000
390
root 0.883686 35.702964 3.245605 -44.278471 -83.941441 31.541108
Spine 5.581001 -0.323222 0.114680
Head -2.471273 9.781002 -24.073947
LeftShoulder 8.352650 -6.272064 27.887994
LeftArm 83.715767 42.657527 -54.124056
LeftForeArm -48.461163 0.000000 98.928160
LeftHand -33.410659 -0.000000 19.601286
LeftHandThumb1 -26.253704 0.000000 33.147579
RightShoulder -1.129602 -23.551579 -25.657998
RightArm 119.309166 12.964285 116.355055
RightForeArm 70.461504 -0.000000 124.347453
RightHand 17.016630 -0.000000 -13.032566
RightHandThumb1 -24.326973 -0.000000 -32.862282
LeftUpLeg 16.470040 9.021678 4.908373
LeftLeg 11.166473 -0.000000 -0.000000
LeftFoot -14.937946 1.071312 -11.191514
LeftToeBase 8.973685 -0.000000 -0.000000
RightUpLeg 21.877069 -12.909990 -17.259101
RightLeg 2.277605 -0.000000 -0.000000
RightFoot -11.327654 5.891386 20.020484
RightToeBase 14.245841 -0.000000 -0.000000
391
root 0.880431 35.702314 3.243741 -44.315904 -83.934671 31.569706
Spine 5.575084 -0.464009 0.125111
Head -2.457869 9.641539 -24.060912
LeftShoulder 8.296466 -6.275338 27.876705
LeftArm 83.802626 42.647827 -54.040006
LeftForeArm -48.593164 -0.000000 98.851365
LeftHand -33.500241 -0.000000 19.712985
LeftHandThumb1 -26.253704 0.000000 33.147579
RightShoulder -1.036910 -23.578498 -25.700431
RightArm 119.250511 12.989173 116.648940
RightForeArm 70.456379 0.000000 123.793707
RightHand 17.095866 -0.000000 -12.963491
RightHandThumb1 -24.326973 -0.000000 -32.862282
LeftUpLeg 16.496874 9.025566 4.911569
LeftLeg 11.142297 -0.000000 -0.000000
LeftFoot -14.939201 1.061327 -11.198561
LeftToeBase 9.009121 -0.000000 -0.000000
RightUpLeg 21.892371 -12.922472 -17.274569
RightLeg 2.283002 -0.000000 -0.000000
RightFoot -11.335668 5.910449 20.032055
RightToeBase 14.234398 -0.000000 -0.000000
392
root 0.875785 35.701082 3.243101 -44.391853 -83.936877 31.624261
Spine 5.590909 -0.497943 0.134269
Head -2.435828 9.393235 -23.992842
LeftShoulder 8.301173 -6.322174 27.911443
LeftArm 83.940843 42.657959 -53.940919
LeftForeArm -48.676988 -0.000000 98.731065
LeftHand -33.495355 -0.000000 19.686110
LeftHandThumb1 -26.253704 0.000000 33.147579
RightShoulder -1.039956 -23.619963 -25.680806
RightArm 119.213151 13.072059 116.955409
RightForeArm 70.477947 -0.000000 123.261150
RightHand 17.208880 -0.000000 -13.584727
RightHandThumb1 -24.326973 -0.000000 -32.862282
LeftUpLeg 16.547864 9.042815 4.922784
LeftLeg 11.105319 -0.000000 -0.000000
LeftFoot -14.935397 1.038113 -11.220886
LeftToeBase 9.008638 -0.000000 -0.000000
RightUpLeg 21.923013 -12.934048 -17.297352
RightLeg 2.282394 -0.000000 -0.000000
RightFoot -11.333050 5.956923 20.053866
RightToeBase 14.239576 -0.000000 -0.000000
393
root 0.874112 35.701081 3.243466 -44.468677 -83.933134 31.696929
Spine 5.585743 -0.536424 0.152569
Head -2.392770 9.151517 -23.969174
LeftShoulder 8.312775 -6.397753 27.938292
LeftArm 83.998975 42.695443 -53.870661
LeftForeArm -48.669520 -0.000000 98.652758
LeftHand -33.390835 -0.000000 19.691515
LeftHandThumb1 -26.253704 0.000000 33.147579
RightShoulder -1.027214 -23.614077 -25.671534
RightArm 119.111417 13.195307 117.210108
RightForeArm 70.254348 -0.000000 122.719729
RightHand 17.106834 0.000000 -14.049468
RightHandThumb1 -24.326973 -0.000000 -32.862282
LeftUpLeg 16.575010 9.056184 4.923372
LeftLeg 11.068520 -0.000000 -0.000000
LeftFoot -14.925299 1.025827 -11.221260
LeftToeBase 9.075854 -0.000000 -0.000000
RightUpLeg 21.931454 -12.928918 -17.308463
RightLeg 2.279176 -0.000000 -0.000000
RightFoot -11.334595 5.962255 20.040539
RightToeBase 14.263325 -0.000000 -0.000000
394
root 0.871322 35.700902 3.243653 -44.579005 -83.937061 31.798916
Spine 5.585886 -0.571343 0.179986
Head -2.349148 8.913023 -23.986703
LeftShoulder 8.341043 -6.427664 27.930340
LeftArm 84.068546 42.710522 -53.824277
LeftForeArm -48.644975 -0.000000 98.598637
LeftHand -33.461610 -0.000000 19.730777
LeftHandThumb1 -26.253704 0.000000 33.147579
RightShoulder -1.038544 -23.616000 -25.653981
RightArm 119.052557 13.221627 117.412805
RightForeArm 70.155636 -0.000000 122.166418
RightHand 16.980244 -0.000000 -14.393477
RightHandThumb1 -24.326973 -0.000000 -32.862282
LeftUpLeg 16.606903 9.093090 4.932838
LeftLeg 11.042489 -0.000000 -0.000000
LeftFoot -14.914791 0.990301 -11.244829
LeftToeBase 9.055993 -0.000000 -0.000000
RightUpLeg 21.945725 -12.914644 -17.316786
RightLeg 2.271578 -0.000000 -0.000000
RightFoot -11.334846 5.966440 20.052394
RightToeBase 14.243473 -0.000000 -0.000000
395
root 0.869439 35.700024 3.243769 -44.728269 -83.943479 31.945859
Spine 5.589421 -0.607313 0.207605
Head -2.337150 8.712673 -23.997383
LeftShoulder 8.367154 -6.444043 27.933935
LeftArm 84.101299 42.728727 -53.832520
LeftForeArm -48.638982 0.000000 98.582241
LeftHand -33.549441 -0.000000 19.737614
LeftHandThumb1 -26.253704 0.000000 33.147579
RightShoulder -1.070669 -23.561489 -25.647558
RightArm 118.972606 13.275653 117.579689
RightForeArm 70.193017 0.000000 121.627963
RightHand 16.994175 0.000000 -15.054602
RightHandThumb1 -24.326973 -0.000000 -32.862282
LeftUpLeg 16.630729 9.112527 4.934284
LeftLeg 11.017603 -0.000000 -0.000000
LeftFoot -14.922513 0.968324 -11.266160
LeftToeBase 9.119620 -0.000000 -0.000000
RightUpLeg 21.947537 -12.903953 -17.323769
RightLeg 2.268023 -0.000000 -0.000000
RightFoot -11.339978 5.967692 20.052237
RightToeBase 14.254575 -0.000000 -0.000000
396
root 0.867488 35.698311 3.244864 -44.826044 -83.944581 32.040675
Spine 5.602283 -0.692336 0.234016
Head -2.360390 8.606783 -24.022374
LeftShoulder 8.349644 -6.478355 27.955716
LeftArm 84.065546 42.789529 -53.918944
LeftForeArm -48.619954 -0.000000 98.591979
LeftHand -33.574040 -0.000000 19.752975
LeftHandThumb1 -26.253704 0.000000 33.147579
RightShoulder -1.040875 -23.380251 -25.739340
RightArm 118.762054 13.390854 117.816085
RightForeArm 70.047655 -0.000000 121.063739
RightHand 16.812508 -0.000000 -15.215445
RightHandThumb1 -24.326973 -0.000000 -32.862282
LeftUpLeg 16.649766 9.120447 4.928409
LeftLeg 10.999806 -0.000000 -0.000000
LeftFoot -14.922021 0.964615 -11.269040
LeftToeBase 9.117464 -0.000000 -0.000000
RightUpLeg 21.957541 -12.903496 -17.336299
RightLeg 2.261077 -0.000000 -0.000000
RightFoot -11.353005 5.983719 20.065085
RightToeBase 14.253184 -0.000000 -0.000000
397
root 0.865560 35.697437 3.247203 -45.000776 -83.950187 32.219417
Spine 5.587553 -0.748145 0.259150
Head -2.319616 8.507340 -24.024434
LeftShoulder 8.391584 -6.510719 27.974524
LeftArm 83.997848 42.848781 -54.048177
LeftForeArm -48.559973 -0.000000 98.612386
LeftHand -33.666945 0.000000 19.916822
LeftHandThumb1 -26.253704 0.000000 33.147579
RightShoulder -0.981175 -23.206926 -25.858349
RightArm 118.538734 13.562798 118.055235
RightForeArm 70.259459 -0.000000 120.547699
RightHand 16.960781 0.000000 -15.298784
RightHandThumb1 -24.326973 -0.000000 -32.862282
LeftUpLeg 16.659745 9.138167 4.915290
LeftLeg 10.986910 -0.000000 -0.000000
LeftFoot -14.920805 0.966438 -11.276418
LeftToeBase 9.089795 -0.000000 -0.000000
RightUpLeg 21.953650 -12.873665 -17.341048
RightLeg 2.252412 -0.000000 -0.000000
RightFoot -11.367544 5.961698 20.063276
RightToeBase 14.250098 -0.000000 -0.000000
398
root 0.865338 35.696922 3.249692 -45.134955 -83.949607 32.361007
Spine 5.571966 -0.791886 0.283416
Head -2.261234 8.398798 -24.007536
LeftShoulder 8.439075 -6.562760 27.987953
LeftArm 83.934830 42.911519 -54.185280
LeftForeArm -48.521183 -0.000000 98.615357
LeftHand -33.757236 0.000000 20.081063
LeftHandThumb1 -26.253704 0.000000 33.147579
RightShoulder -0.931366 -23.115608 -25.940203
RightArm 118.433694 13.685178 118.286049
RightForeArm 70.535523 -0.000000 120.033929
RightHand 16.944545 -0.000000 -15.593134
RightHandThumb1 -24.326973 -0.000000 -32.862282
LeftUpLeg 16.654846 9.135329 4.891737
LeftLeg 10.985707 -0.000000 -0.000000
LeftFoot -14.929198 0.988914 -11.273204
LeftToeBase 9.113010 -0.000000 -0.000000
RightUpLeg 21.941561 -12.865788 -17.352508
RightLeg 2.259588 -0.000000 -0.000000
RightFoot -11.381538 5.957460 20.040128
RightToeBase 14.273419 -0.000000 -0.000000
